<svg width="24" height="24" viewBox="0 0 24 24" fill="none" xmlns="http://www.w3.org/2000/svg">
<path d="M0.982337 2.59494L21.405 23.0173C21.9986 23.6109 22.9611 23.6109 23.5547 23.0173C24.1484 22.4236 24.1484 21.4612 23.5547 20.8675L3.13209 0.445221C2.53845 -0.148407 1.57597 -0.148407 0.982337 0.445221C0.3887 1.03885 0.3887 2.00131 0.982337 2.59494Z" fill="#24282B"/>
<path d="M2.59498 23.5547L23.0176 3.13242C23.6113 2.53879 23.6113 1.57633 23.0176 0.982697C22.424 0.389069 21.4615 0.389069 20.8679 0.982697L0.445228 21.405C-0.148409 21.9986 -0.148409 22.9611 0.445228 23.5547C1.03887 24.1484 2.00134 24.1484 2.59498 23.5547Z" fill="#24282B"/>
</svg>
