<svg width="113" height="104" viewBox="0 0 113 104" fill="none" xmlns="http://www.w3.org/2000/svg">
<path d="M58.1614 1.3811C72.8269 1.42511 88.1996 3.01103 98.7727 10.1321C104.042 13.681 108.122 18.6071 110.333 25.4274C112.545 32.2509 112.898 41.0049 110.647 52.2225C106.015 66.0636 100.06 78.785 91.644 88.0322C83.2376 97.2683 72.3699 103.047 57.8564 103.003C43.2195 102.959 32.0608 100.987 23.0889 93.9775C14.1139 86.9659 7.24116 74.8468 1.35494 54.2983C-0.117583 42.4171 0.888461 33.1883 3.64893 26.0276C6.40954 18.8666 10.9358 13.7443 16.5541 10.0915C27.8206 2.76664 43.4976 1.33709 58.1614 1.3811Z" stroke="#E2E001"/>
</svg>
