<svg width="19" height="19" viewBox="0 0 19 19" fill="none" xmlns="http://www.w3.org/2000/svg">
<path d="M13.6667 0.125H5.33333C2.45685 0.125 0.125 2.45685 0.125 5.33333V13.6667C0.125 16.5431 2.45685 18.875 5.33333 18.875H13.6667C16.5431 18.875 18.875 16.5431 18.875 13.6667V5.33333C18.875 2.45685 16.5431 0.125 13.6667 0.125ZM17.0521 13.6667C17.0464 15.534 15.534 17.0464 13.6667 17.0521H5.33333C3.46599 17.0464 1.95364 15.534 1.94792 13.6667V5.33333C1.95364 3.46599 3.46599 1.95364 5.33333 1.94792H13.6667C15.534 1.95364 17.0464 3.46599 17.0521 5.33333V13.6667ZM15.4896 4.55208C15.4896 5.12738 15.0232 5.59375 14.4479 5.59375C13.8726 5.59375 13.4062 5.12738 13.4062 4.55208C13.4062 3.97679 13.8726 3.51042 14.4479 3.51042C15.0232 3.51042 15.4896 3.97679 15.4896 4.55208ZM9.5 4.8125C6.91116 4.8125 4.8125 6.91116 4.8125 9.5C4.8125 12.0888 6.91116 14.1875 9.5 14.1875C12.0888 14.1875 14.1875 12.0888 14.1875 9.5C14.1903 8.25595 13.6973 7.06205 12.8176 6.18237C11.9379 5.3027 10.7441 4.80973 9.5 4.8125ZM9.5 12.3646C7.91793 12.3646 6.63542 11.0821 6.63542 9.5C6.63542 7.91793 7.91793 6.63542 9.5 6.63542C11.0821 6.63542 12.3646 7.91793 12.3646 9.5C12.3646 11.0821 11.0821 12.3646 9.5 12.3646Z" fill="#E2E001"/>
</svg>
