<?xml version="1.0" encoding="UTF-8"?>
<!DOCTYPE svg PUBLIC "-//W3C//DTD SVG 1.1//EN" "http://www.w3.org/Graphics/SVG/1.1/DTD/svg11.dtd">
<svg xmlns="http://www.w3.org/2000/svg" version="1.1" width="115px" height="79px" style="shape-rendering:geometricPrecision; text-rendering:geometricPrecision; image-rendering:optimizeQuality; fill-rule:evenodd; clip-rule:evenodd" xmlns:xlink="http://www.w3.org/1999/xlink">
<g><path style="opacity:1" fill="#fcfcfd" d="M 5.5,-0.5 C 39.8333,-0.5 74.1667,-0.5 108.5,-0.5C 108.5,20.8333 108.5,42.1667 108.5,63.5C 107.5,63.5 106.5,63.5 105.5,63.5C 105.665,67.1817 105.499,70.8484 105,74.5C 101.807,71.2747 98.9737,67.7747 96.5,64C 94.8876,63.2797 93.3876,63.4464 92,64.5C 91.5008,69.1548 91.3342,73.8215 91.5,78.5C 88.5,78.5 85.5,78.5 82.5,78.5C 87.7754,73.7112 87.7754,68.8778 82.5,64C 78.8333,63.3333 75.1667,63.3333 71.5,64C 66.2246,68.8778 66.2246,73.7112 71.5,78.5C 68.8333,78.5 66.1667,78.5 63.5,78.5C 60.1883,77.0432 56.6883,75.7098 53,74.5C 52.0218,71.3307 52.5218,68.4973 54.5,66C 57.5535,65.8214 60.5535,65.3214 63.5,64.5C 57.9607,62.5292 53.1273,63.5292 49,67.5C 47.6631,72.1279 48.8298,75.7946 52.5,78.5C 49.5,78.5 46.5,78.5 43.5,78.5C 42.1879,76.5212 40.5212,74.8545 38.5,73.5C 44.5778,72.2362 45.9112,69.0695 42.5,64C 37.778,63.2231 33.1113,63.3897 28.5,64.5C 27.5067,69.1196 27.1734,73.7863 27.5,78.5C 26.5,78.5 25.5,78.5 24.5,78.5C 22.7506,72.6542 19.7506,67.6542 15.5,63.5C 13.9707,63.5288 12.804,64.1955 12,65.5C 10.3109,69.5599 8.14419,73.2266 5.5,76.5C 5.5,50.8333 5.5,25.1667 5.5,-0.5 Z"/></g>
<g><path style="opacity:1" fill="#131a58" d="M 58.5,8.5 C 45.8038,23.525 33.1372,38.525 20.5,53.5C 30.3913,36.0574 40.558,18.7241 51,1.5C 51.7175,0.549434 52.5509,0.382767 53.5,1C 55.3887,3.3818 57.0553,5.8818 58.5,8.5 Z"/></g>
<g><path style="opacity:1" fill="#999b9f" d="M 58.5,8.5 C 60.636,10.8123 62.636,13.3123 64.5,16C 54.7984,25.3702 44.7984,34.3702 34.5,43C 44.5,43.3333 54.5,43.6667 64.5,44C 48.8129,49.3296 33.1462,53.8296 17.5,57.5C 18.0351,55.739 19.0351,54.4057 20.5,53.5C 33.1372,38.525 45.8038,23.525 58.5,8.5 Z"/></g>
<g><path style="opacity:1" fill="#111c58" d="M 87.5,54.5 C 78.5,44.8333 69.1667,35.5 59.5,26.5C 61.4305,23.9026 63.7639,21.5693 66.5,19.5C 73.8634,30.3651 81.0301,41.3651 88,52.5C 88.6917,53.4368 88.525,54.1034 87.5,54.5 Z"/></g>
<g><path style="opacity:1" fill="#999ea5" d="M 59.5,26.5 C 69.1667,35.5 78.5,44.8333 87.5,54.5C 75.5502,47.5199 63.8835,40.0199 52.5,32C 54.4412,29.5464 56.7746,27.713 59.5,26.5 Z"/></g>
<g><path style="opacity:1" fill="#181d52" d="M 24.5,78.5 C 23.5,78.5 22.5,78.5 21.5,78.5C 20.7006,75.1081 18.5339,73.7748 15,74.5C 11.8143,74.2366 9.98099,75.5699 9.5,78.5C 8.16667,78.5 6.83333,78.5 5.5,78.5C 5.5,77.8333 5.5,77.1667 5.5,76.5C 8.14419,73.2266 10.3109,69.5599 12,65.5C 12.804,64.1955 13.9707,63.5288 15.5,63.5C 19.7506,67.6542 22.7506,72.6542 24.5,78.5 Z"/></g>
<g><path style="opacity:1" fill="#ebf2f8" d="M 14.5,66.5 C 20.0404,71.241 19.3738,73.241 12.5,72.5C 12.6036,70.2972 13.2702,68.2972 14.5,66.5 Z"/></g>
<g><path style="opacity:1" fill="#222358" d="M 43.5,78.5 C 42.1667,78.5 40.8333,78.5 39.5,78.5C 37.8272,76.1606 35.8272,74.1606 33.5,72.5C 35.4233,71.6922 37.4233,71.1922 39.5,71C 40.5536,69.6124 40.7203,68.1124 40,66.5C 37.2809,65.5562 34.4475,65.2229 31.5,65.5C 31.5,69.8333 31.5,74.1667 31.5,78.5C 30.1667,78.5 28.8333,78.5 27.5,78.5C 27.1734,73.7863 27.5067,69.1196 28.5,64.5C 33.1113,63.3897 37.778,63.2231 42.5,64C 45.9112,69.0695 44.5778,72.2362 38.5,73.5C 40.5212,74.8545 42.1879,76.5212 43.5,78.5 Z"/></g>
<g><path style="opacity:1" fill="#ebedf3" d="M 39.5,78.5 C 36.8333,78.5 34.1667,78.5 31.5,78.5C 31.5,74.1667 31.5,69.8333 31.5,65.5C 34.4475,65.2229 37.2809,65.5562 40,66.5C 40.7203,68.1124 40.5536,69.6124 39.5,71C 37.4233,71.1922 35.4233,71.6922 33.5,72.5C 35.8272,74.1606 37.8272,76.1606 39.5,78.5 Z"/></g>
<g><path style="opacity:1" fill="#1c2155" d="M 63.5,78.5 C 59.8333,78.5 56.1667,78.5 52.5,78.5C 48.8298,75.7946 47.6631,72.1279 49,67.5C 53.1273,63.5292 57.9607,62.5292 63.5,64.5C 60.5535,65.3214 57.5535,65.8214 54.5,66C 52.5218,68.4973 52.0218,71.3307 53,74.5C 56.6883,75.7098 60.1883,77.0432 63.5,78.5 Z"/></g>
<g><path style="opacity:1" fill="#f4f5fd" d="M 21.5,78.5 C 17.5,78.5 13.5,78.5 9.5,78.5C 9.98099,75.5699 11.8143,74.2366 15,74.5C 18.5339,73.7748 20.7006,75.1081 21.5,78.5 Z"/></g>
<g><path style="opacity:1" fill="#141a55" d="M 108.5,63.5 C 108.5,68.5 108.5,73.5 108.5,78.5C 106.833,78.5 105.167,78.5 103.5,78.5C 100.882,74.7093 98.0486,71.0426 95,67.5C 94.5014,71.1516 94.3347,74.8183 94.5,78.5C 93.5,78.5 92.5,78.5 91.5,78.5C 91.3342,73.8215 91.5008,69.1548 92,64.5C 93.3876,63.4464 94.8876,63.2797 96.5,64C 98.9737,67.7747 101.807,71.2747 105,74.5C 105.499,70.8484 105.665,67.1817 105.5,63.5C 106.5,63.5 107.5,63.5 108.5,63.5 Z"/></g>
<g><path style="opacity:1" fill="#f2f8fb" d="M 103.5,78.5 C 100.5,78.5 97.5,78.5 94.5,78.5C 94.3347,74.8183 94.5014,71.1516 95,67.5C 98.0486,71.0426 100.882,74.7093 103.5,78.5 Z"/></g>
<g><path style="opacity:1" fill="#191b56" d="M 82.5,78.5 C 78.8333,78.5 75.1667,78.5 71.5,78.5C 66.2246,73.7112 66.2246,68.8778 71.5,64C 75.1667,63.3333 78.8333,63.3333 82.5,64C 87.7754,68.8778 87.7754,73.7112 82.5,78.5 Z"/></g>
<g><path style="opacity:1" fill="#f0f6f9" d="M 73.5,65.5 C 81.7013,64.3698 84.368,67.7032 81.5,75.5C 71.7924,77.7926 69.1257,74.4593 73.5,65.5 Z"/></g>
</svg>
