<svg width="109" height="53" viewBox="0 0 109 53" fill="none" xmlns="http://www.w3.org/2000/svg">
<path d="M7.76367 32.1953C6.80664 32.2083 5.89518 32.0423 5.0293 31.6973C4.16341 31.3457 3.41471 30.8574 2.7832 30.2324C2.15169 29.6074 1.65365 28.8424 1.28906 27.9375C0.924479 27.026 0.748698 26.0462 0.761719 24.998C0.742188 24.0215 0.927734 23.084 1.31836 22.1855C1.71549 21.2871 2.24935 20.5156 2.91992 19.8711C3.59049 19.2266 4.38477 18.7188 5.30273 18.3477C6.2207 17.9701 7.17448 17.7878 8.16406 17.8008C9.99349 17.8008 11.4876 18.2402 12.6465 19.1191C13.8053 19.9915 14.5768 21.1797 14.9609 22.6836L11.8848 23.6602C11.6829 22.7422 11.25 22.0195 10.5859 21.4922C9.92839 20.9648 9.12109 20.7012 8.16406 20.7012C6.96615 20.7012 5.9668 21.1081 5.16602 21.9219C4.36523 22.7292 3.96484 23.7546 3.96484 24.998C3.96484 26.3262 4.32943 27.3743 5.05859 28.1426C5.79427 28.9173 6.79362 29.3047 8.05664 29.3047C8.94857 29.3047 9.68424 29.0801 10.2637 28.6309C10.8496 28.1751 11.2012 27.6966 11.3184 27.1953H6.03516V24.5977H15.459V32H12.6562V29.1777C12.2591 30.1283 11.6406 30.8704 10.8008 31.4043C9.96094 31.9316 8.94857 32.1953 7.76367 32.1953ZM49.668 32H46.0645C45.8822 31.5964 45.7617 31.196 45.7031 30.7988C45.651 30.4277 45.625 29.7604 45.625 28.7969C45.625 28.1133 45.4492 27.5924 45.0977 27.2344C44.7461 26.8763 44.2415 26.6973 43.584 26.6973H40.9863V32H37.7832V17.9961H44.7852C46.2305 17.9961 47.373 18.3802 48.2129 19.1484C49.0592 19.9102 49.4824 20.8932 49.4824 22.0977C49.4824 22.8659 49.2285 23.6081 48.7207 24.3242C48.2389 25.0013 47.5944 25.4928 46.7871 25.7988C47.3926 25.9616 47.8906 26.3001 48.2812 26.8145C48.6719 27.3288 48.8867 27.957 48.9258 28.6992C48.9648 29.4219 49.0397 30.0176 49.1504 30.4863C49.2611 30.9486 49.4336 31.3457 49.668 31.6777V32ZM40.9863 23.7969H44.6875C45.2409 23.7969 45.6608 23.6602 45.9473 23.3867C46.2402 23.1133 46.3867 22.752 46.3867 22.3027C46.3867 21.86 46.2435 21.515 45.957 21.2676C45.6706 21.0202 45.2474 20.8965 44.6875 20.8965H40.9863V23.7969ZM70.6836 32L76.1914 17.9961H80.791L86.2891 32H82.793L81.709 29.0996H75.2637L74.1895 32H70.6836ZM76.3477 26.1992H80.625L78.4863 20.4766L76.3477 26.1992Z" fill="#24282B"/>
<path d="M21.2793 31.9961H31.9629V34.8965H24.4824V37.6992H31.3574V40.5996H24.4824V46H21.2793V31.9961ZM59.1113 46V31.9961H62.3145V46H59.1113ZM101.836 31.9961V34.8965H97.0312V46H93.8379V34.8965H89.0332V31.9961H101.836Z" fill="#24282B"/>
</svg>
