<svg width="58" height="32" viewBox="0 0 58 32" fill="none" xmlns="http://www.w3.org/2000/svg">
<path d="M49.92 0.639648H2.08C0.931248 0.639648 0 0.895486 0 1.21108V2.06822C0 2.38381 0.931248 2.63965 2.08 2.63965H49.92C51.0688 2.63965 52 2.38381 52 2.06822V1.21108C52 0.895486 51.0688 0.639648 49.92 0.639648Z" fill="#24282B"/>
<path d="M49.92 10.6396H2.08C0.931248 10.6396 0 10.8955 0 11.2111V12.0682C0 12.3838 0.931248 12.6396 2.08 12.6396H49.92C51.0688 12.6396 52 12.3838 52 12.0682V11.2111C52 10.8955 51.0688 10.6396 49.92 10.6396Z" fill="#24282B"/>
<path d="M49.92 20.6396H2.08C0.931248 20.6396 0 20.8955 0 21.2111V22.0682C0 22.3838 0.931248 22.6396 2.08 22.6396H49.92C51.0688 22.6396 52 22.3838 52 22.0682V21.2111C52 20.8955 51.0688 20.6396 49.92 20.6396Z" fill="#24282B"/>
</svg>
