<svg width="58" height="31" viewBox="0 0 58 31" fill="none" xmlns="http://www.w3.org/2000/svg">
<path d="M55.68 0H2.32C1.0387 0 0 0.473091 0 1.05668V2.6417C0 3.22528 1.0387 3.69837 2.32 3.69837H55.68C56.9613 3.69837 58 3.22528 58 2.6417V1.05668C58 0.473091 56.9613 0 55.68 0Z" fill="#24282B"/>
<path d="M55.68 13.5607H2.32C1.0387 13.5607 0 14.0338 0 14.6173V16.2024C0 16.786 1.0387 17.259 2.32 17.259H55.68C56.9613 17.259 58 16.786 58 16.2024V14.6173C58 14.0338 56.9613 13.5607 55.68 13.5607Z" fill="#24282B"/>
<path d="M55.68 27.1215H2.32C1.0387 27.1215 0 27.5946 0 28.1781V29.7632C0 30.3467 1.0387 30.8198 2.32 30.8198H55.68C56.9613 30.8198 58 30.3467 58 29.7632V28.1781C58 27.5946 56.9613 27.1215 55.68 27.1215Z" fill="#24282B"/>
</svg>
