<svg width="19" height="19" viewBox="0 0 19 19" fill="none" xmlns="http://www.w3.org/2000/svg">
<path d="M18.875 2.20833V16.7917C18.875 17.9423 17.9423 18.875 16.7917 18.875H12.8854C12.5978 18.875 12.3646 18.6418 12.3646 18.3542V12.1042H14.8021C15.0496 12.1042 15.263 11.93 15.3125 11.6875L15.6875 9.8125C15.703 9.73676 15.684 9.65805 15.6357 9.59768C15.5874 9.53732 15.5148 9.50153 15.4375 9.5H12.3646V6.11458C12.3646 5.97076 12.4812 5.85417 12.625 5.85417H15.2292C15.5168 5.85417 15.75 5.62098 15.75 5.33333V3.77083C15.75 3.48318 15.5168 3.25 15.2292 3.25H12.625C10.8991 3.25 9.5 4.64911 9.5 6.375V9.5H8.21875C7.9311 9.5 7.69792 9.73318 7.69792 10.0208V11.5833C7.69792 11.871 7.9311 12.1042 8.21875 12.1042H9.5V18.3542C9.5 18.6418 9.26681 18.875 8.97917 18.875H2.20833C1.05774 18.875 0.125 17.9423 0.125 16.7917V2.20833C0.125 1.05774 1.05774 0.125 2.20833 0.125H16.7917C17.9423 0.125 18.875 1.05774 18.875 2.20833Z" fill="#ffffff"/>
</svg>
